<svg xmlns="http://www.w3.org/2000/svg" xmlns:xlink="http://www.w3.org/1999/xlink" contentStyleType="text/css" height="558.3333" preserveAspectRatio="none" style="width:631px;height:558px;" version="1.1" viewBox="0 0 631 558" width="631.25" zoomAndPan="magnify"><defs><linearGradient id="g1qtocrn0nuyuz0" x1="50%" x2="50%" y1="0%" y2="100%"><stop offset="0%" stop-color="#59B6EC"/><stop offset="100%" stop-color="#2FA4E7"/></linearGradient><linearGradient id="g1qtocrn0nuyuz1" x1="50%" x2="50%" y1="0%" y2="100%"><stop offset="0%" stop-color="#35638F"/><stop offset="100%" stop-color="#033C73"/></linearGradient></defs><g><rect fill="#EDF0F2" height="438.0534" style="stroke:#BABDBF;stroke-width:1.0416666666666667;" width="10.4167" x="108.8542" y="61.4258"/><rect fill="#EDF0F2" height="212.2721" style="stroke:#BABDBF;stroke-width:1.0416666666666667;" width="10.4167" x="318.2292" y="61.4258"/><rect fill="none" height="126.9206" rx="4.1667" ry="4.1667" style="stroke:#59B6EC;stroke-width:1.0416666666666667;" width="598.9583" x="20.8333" y="108.2682"/><rect fill="none" height="75.944" rx="4.1667" ry="4.1667" style="stroke:#59B6EC;stroke-width:1.0416666666666667;" width="578.125" x="31.25" y="151.9531"/><rect fill="none" height="126.9206" rx="4.1667" ry="4.1667" style="stroke:#59B6EC;stroke-width:1.0416666666666667;" width="598.9583" x="20.8333" y="289.3229"/><rect fill="none" height="75.944" rx="4.1667" ry="4.1667" style="stroke:#59B6EC;stroke-width:1.0416666666666667;" width="578.125" x="31.25" y="333.0078"/><line style="stroke:#BABDBF;stroke-width:1.0416666666666667;stroke-dasharray:5.0,5.0;" x1="113.5417" x2="113.5417" y1="51.0091" y2="508.8542"/><line style="stroke:#BABDBF;stroke-width:1.0416666666666667;stroke-dasharray:5.0,5.0;" x1="322.9167" x2="322.9167" y1="51.0091" y2="508.8542"/><rect fill="url(#g1qtocrn0nuyuz0)" height="39.5508" rx="4.1667" ry="4.1667" style="stroke:#2FA4E7;stroke-width:1.0416666666666667;" width="61.4583" x="83.3333" y="10.4167"/><text fill="#FFFFFF" font-family="Verdana" font-size="12.5" lengthAdjust="spacing" textLength="36.4583" x="95.8333" y="34.5194">PeerA</text><rect fill="url(#g1qtocrn0nuyuz0)" height="39.5508" rx="4.1667" ry="4.1667" style="stroke:#2FA4E7;stroke-width:1.0416666666666667;" width="61.4583" x="83.3333" y="507.8125"/><text fill="#FFFFFF" font-family="Verdana" font-size="12.5" lengthAdjust="spacing" textLength="36.4583" x="95.8333" y="531.9153">PeerA</text><rect fill="url(#g1qtocrn0nuyuz0)" height="39.5508" rx="4.1667" ry="4.1667" style="stroke:#2FA4E7;stroke-width:1.0416666666666667;" width="61.4583" x="292.7083" y="10.4167"/><text fill="#FFFFFF" font-family="Verdana" font-size="12.5" lengthAdjust="spacing" textLength="36.4583" x="305.2083" y="34.5194">PeerB</text><rect fill="url(#g1qtocrn0nuyuz0)" height="39.5508" rx="4.1667" ry="4.1667" style="stroke:#2FA4E7;stroke-width:1.0416666666666667;" width="61.4583" x="292.7083" y="507.8125"/><text fill="#FFFFFF" font-family="Verdana" font-size="12.5" lengthAdjust="spacing" textLength="36.4583" x="305.2083" y="531.9153">PeerB</text><rect fill="#EDF0F2" height="438.0534" style="stroke:#BABDBF;stroke-width:1.0416666666666667;" width="10.4167" x="108.8542" y="61.4258"/><rect fill="#EDF0F2" height="212.2721" style="stroke:#BABDBF;stroke-width:1.0416666666666667;" width="10.4167" x="318.2292" y="61.4258"/><polygon fill="#2FA4E7" points="305.7292,88.4766,316.1458,92.6432,305.7292,96.8099,309.8958,92.6432" style="stroke:#2FA4E7;stroke-width:1.0416666666666667;"/><line style="stroke:#2FA4E7;stroke-width:3.125;" x1="119.2708" x2="311.9792" y1="92.6432" y2="92.6432"/><text fill="#343A40" font-family="Verdana" font-size="12.5" lengthAdjust="spacing" textLength="163.5417" x="131.7708" y="82.4036">Send FIN packet (no data)</text><path d="M25,108.2682 L98.9583,108.2682 L98.9583,124.9023 L88.5417,135.319 L20.8333,135.319 L20.8333,112.4349 A4.1667,4.1667 0 0 1 25,108.2682 " fill="#E9ECEF" style="stroke:#868E96;stroke-width:1.0416666666666667;"/><rect fill="none" height="126.9206" rx="4.1667" ry="4.1667" style="stroke:#59B6EC;stroke-width:1.0416666666666667;" width="598.9583" x="20.8333" y="108.2682"/><text fill="#033C73" font-family="Verdana" font-size="12.5" font-weight="bold" lengthAdjust="spacing" textLength="20.8333" x="41.6667" y="126.121">alt</text><text fill="#343A40" font-family="Verdana" font-size="12.5" font-weight="bold" lengthAdjust="spacing" textLength="277.0833" x="119.7917" y="127.1627">[Peer A's FIN Not Received by Peer B]</text><path d="M35.4167,151.9531 L120.8333,151.9531 L120.8333,168.5872 L110.4167,179.0039 L31.25,179.0039 L31.25,156.1198 A4.1667,4.1667 0 0 1 35.4167,151.9531 " fill="#E9ECEF" style="stroke:#868E96;stroke-width:1.0416666666666667;"/><rect fill="none" height="75.944" rx="4.1667" ry="4.1667" style="stroke:#59B6EC;stroke-width:1.0416666666666667;" width="578.125" x="31.25" y="151.9531"/><text fill="#033C73" font-family="Verdana" font-size="12.5" font-weight="bold" lengthAdjust="spacing" textLength="32.2917" x="52.0833" y="169.8059">loop</text><text fill="#343A40" font-family="Verdana" font-size="12.5" font-weight="bold" lengthAdjust="spacing" textLength="457.2917" x="141.6667" y="170.8476">[until Peer A's FIN received by Peer B or timeout (3 seconds)]</text><polygon fill="#2FA4E7" points="305.7292,215.3971,316.1458,219.5638,305.7292,223.7305,309.8958,219.5638" style="stroke:#2FA4E7;stroke-width:1.0416666666666667;"/><line style="stroke:#2FA4E7;stroke-width:3.125;" x1="119.2708" x2="311.9792" y1="219.5638" y2="219.5638"/><text fill="#343A40" font-family="Verdana" font-size="12.5" lengthAdjust="spacing" textLength="116.6667" x="131.7708" y="209.3241">Resend FIN packet</text><polygon fill="#2FA4E7" points="310.9375,269.5313,321.3542,273.6979,310.9375,277.8646,315.1042,273.6979" style="stroke:#2FA4E7;stroke-width:1.0416666666666667;"/><line style="stroke:#2FA4E7;stroke-width:3.125;" x1="119.2708" x2="317.1875" y1="273.6979" y2="273.6979"/><text fill="#343A40" font-family="Verdana" font-size="12.5" lengthAdjust="spacing" textLength="163.5417" x="131.7708" y="263.4583">Send FIN packet (no data)</text><path d="M25,289.3229 L98.9583,289.3229 L98.9583,305.957 L88.5417,316.3737 L20.8333,316.3737 L20.8333,293.4896 A4.1667,4.1667 0 0 1 25,289.3229 " fill="#E9ECEF" style="stroke:#868E96;stroke-width:1.0416666666666667;"/><rect fill="none" height="126.9206" rx="4.1667" ry="4.1667" style="stroke:#59B6EC;stroke-width:1.0416666666666667;" width="598.9583" x="20.8333" y="289.3229"/><text fill="#033C73" font-family="Verdana" font-size="12.5" font-weight="bold" lengthAdjust="spacing" textLength="20.8333" x="41.6667" y="307.1757">alt</text><text fill="#343A40" font-family="Verdana" font-size="12.5" font-weight="bold" lengthAdjust="spacing" textLength="277.0833" x="119.7917" y="308.2174">[Peer B's FIN Not Received by Peer A]</text><path d="M35.4167,333.0078 L120.8333,333.0078 L120.8333,349.6419 L110.4167,360.0586 L31.25,360.0586 L31.25,337.1745 A4.1667,4.1667 0 0 1 35.4167,333.0078 " fill="#E9ECEF" style="stroke:#868E96;stroke-width:1.0416666666666667;"/><rect fill="none" height="75.944" rx="4.1667" ry="4.1667" style="stroke:#59B6EC;stroke-width:1.0416666666666667;" width="578.125" x="31.25" y="333.0078"/><text fill="#033C73" font-family="Verdana" font-size="12.5" font-weight="bold" lengthAdjust="spacing" textLength="32.2917" x="52.0833" y="350.8606">loop</text><text fill="#343A40" font-family="Verdana" font-size="12.5" font-weight="bold" lengthAdjust="spacing" textLength="457.2917" x="141.6667" y="351.9023">[until Peer B's FIN received by Peer A or timeout (3 seconds)]</text><polygon fill="#2FA4E7" points="130.7292,396.4518,120.3125,400.6185,130.7292,404.7852,126.5625,400.6185" style="stroke:#2FA4E7;stroke-width:1.0416666666666667;"/><line style="stroke:#2FA4E7;stroke-width:3.125;" x1="124.4792" x2="322.3958" y1="400.6185" y2="400.6185"/><text fill="#343A40" font-family="Verdana" font-size="12.5" lengthAdjust="spacing" textLength="116.6667" x="142.1875" y="390.3788">Resend FIN packet</text><path d="M123.9583,432.9102 L123.9583,488.1185 A4.1667,4.1667 0 0 0 128.125,492.2852 L317.7083,492.2852 A4.1667,4.1667 0 0 0 321.875,488.1185 L321.875,439.1602 L311.4583,428.7435 L128.125,428.7435 A4.1667,4.1667 0 0 0 123.9583,432.9102 " fill="url(#g1qtocrn0nuyuz1)" style="stroke:#033C73;stroke-width:1.0416666666666667;"/><path d="M311.4583,428.7435 L311.4583,437.0768 A2.0833,2.0833 0 0 0 313.5417,439.1602 L321.875,439.1602 L311.4583,428.7435 " fill="url(#g1qtocrn0nuyuz1)" style="stroke:#033C73;stroke-width:1.0416666666666667;"/><text fill="#FFFFFF" font-family="Verdana" font-size="12.5" lengthAdjust="spacing" textLength="125" x="135.4167" y="450.7629">If data is not empty,</text><text fill="#FFFFFF" font-family="Verdana" font-size="12.5" lengthAdjust="spacing" textLength="165.625" x="135.4167" y="465.3137">FIN goes to transfer room.</text><text fill="#FFFFFF" font-family="Verdana" font-size="12.5" lengthAdjust="spacing" textLength="110.4167" x="135.4167" y="479.8645">(Transfer is over)</text><!--SRC=[bOy_JyCm4CLtVuh7H2C12ni3KZmWTQbGOUnYd4jhDV5PzYLIlprEGeIQylSaUxXxx-xzhkH0BS5Ix1eoNWKJnLaNZ1Sy4yNoegELCbPSRuG-5EEFsyTf_80NyXMUrXi4OuyaM7b6PSGKsTbCIr1Ufr6oOS6MBBcUAhoTfg5MoDKm1tHUN7DkYHToS8IubhZBn-wHoBAlKZ5k6MePS4lfFEAep2qrl0MV_WTVHGlh9x3-2RZy4bX_1rp-1LZFYSlVWNCeGdJxWu3hsRIkHogu19z3KnlaTBFpmv8zKu8m91gVwfmeChTtExzwdHlPn3t5uXq0]--></g></svg>