<svg xmlns="http://www.w3.org/2000/svg" xmlns:xlink="http://www.w3.org/1999/xlink" contentStyleType="text/css" height="608.3333" preserveAspectRatio="none" style="width:615px;height:608px;" version="1.1" viewBox="0 0 615 608" width="615.625" zoomAndPan="magnify"><defs><linearGradient id="g1fmpf3dthz7zx0" x1="50%" x2="50%" y1="0%" y2="100%"><stop offset="0%" stop-color="#59B6EC"/><stop offset="100%" stop-color="#2FA4E7"/></linearGradient><linearGradient id="g1fmpf3dthz7zx1" x1="50%" x2="50%" y1="0%" y2="100%"><stop offset="0%" stop-color="#35638F"/><stop offset="100%" stop-color="#033C73"/></linearGradient></defs><g><rect fill="#EDF0F2" height="110.319" style="stroke:#BABDBF;stroke-width:1.0416666666666667;" width="10.4167" x="108.8542" y="61.4258"/><rect fill="#EDF0F2" height="39.5508" style="stroke:#BABDBF;stroke-width:1.0416666666666667;" width="10.4167" x="304.6875" y="92.6432"/><rect fill="none" height="126.9206" rx="4.1667" ry="4.1667" style="stroke:#59B6EC;stroke-width:1.0416666666666667;" width="539.5833" x="20.8333" y="187.3698"/><rect fill="none" height="75.944" rx="4.1667" ry="4.1667" style="stroke:#59B6EC;stroke-width:1.0416666666666667;" width="518.75" x="31.25" y="231.0547"/><rect fill="none" height="126.9206" rx="4.1667" ry="4.1667" style="stroke:#59B6EC;stroke-width:1.0416666666666667;" width="583.3333" x="20.8333" y="328.8737"/><rect fill="none" height="75.944" rx="4.1667" ry="4.1667" style="stroke:#59B6EC;stroke-width:1.0416666666666667;" width="562.5" x="31.25" y="372.5586"/><line style="stroke:#BABDBF;stroke-width:1.0416666666666667;stroke-dasharray:5.0,5.0;" x1="113.5417" x2="113.5417" y1="51.0091" y2="558.8542"/><line style="stroke:#BABDBF;stroke-width:1.0416666666666667;stroke-dasharray:5.0,5.0;" x1="309.375" x2="309.375" y1="51.0091" y2="558.8542"/><rect fill="url(#g1fmpf3dthz7zx0)" height="39.5508" rx="4.1667" ry="4.1667" style="stroke:#2FA4E7;stroke-width:1.0416666666666667;" width="61.4583" x="83.3333" y="10.4167"/><text fill="#FFFFFF" font-family="Verdana" font-size="12.5" lengthAdjust="spacing" textLength="36.4583" x="95.8333" y="34.5194">PeerA</text><rect fill="url(#g1fmpf3dthz7zx0)" height="39.5508" rx="4.1667" ry="4.1667" style="stroke:#2FA4E7;stroke-width:1.0416666666666667;" width="61.4583" x="83.3333" y="557.8125"/><text fill="#FFFFFF" font-family="Verdana" font-size="12.5" lengthAdjust="spacing" textLength="36.4583" x="95.8333" y="581.9153">PeerA</text><rect fill="url(#g1fmpf3dthz7zx0)" height="39.5508" rx="4.1667" ry="4.1667" style="stroke:#2FA4E7;stroke-width:1.0416666666666667;" width="61.4583" x="279.1667" y="10.4167"/><text fill="#FFFFFF" font-family="Verdana" font-size="12.5" lengthAdjust="spacing" textLength="36.4583" x="291.6667" y="34.5194">PeerB</text><rect fill="url(#g1fmpf3dthz7zx0)" height="39.5508" rx="4.1667" ry="4.1667" style="stroke:#2FA4E7;stroke-width:1.0416666666666667;" width="61.4583" x="279.1667" y="557.8125"/><text fill="#FFFFFF" font-family="Verdana" font-size="12.5" lengthAdjust="spacing" textLength="36.4583" x="291.6667" y="581.9153">PeerB</text><rect fill="#EDF0F2" height="110.319" style="stroke:#BABDBF;stroke-width:1.0416666666666667;" width="10.4167" x="108.8542" y="61.4258"/><rect fill="#EDF0F2" height="39.5508" style="stroke:#BABDBF;stroke-width:1.0416666666666667;" width="10.4167" x="304.6875" y="92.6432"/><polygon fill="#2FA4E7" points="292.1875,88.4766,302.6042,92.6432,292.1875,96.8099,296.3542,92.6432" style="stroke:#2FA4E7;stroke-width:1.0416666666666667;"/><line style="stroke:#2FA4E7;stroke-width:3.125;" x1="119.2708" x2="298.4375" y1="92.6432" y2="92.6432"/><text fill="#343A40" font-family="Verdana" font-size="12.5" lengthAdjust="spacing" textLength="107.2917" x="131.7708" y="82.4036">Send SYN packet</text><polygon fill="#2FA4E7" points="130.7292,128.0273,120.3125,132.194,130.7292,136.3607,126.5625,132.194" style="stroke:#2FA4E7;stroke-width:1.0416666666666667;"/><line style="stroke:#2FA4E7;stroke-width:3.125;" x1="124.4792" x2="308.8542" y1="132.194" y2="132.194"/><text fill="#343A40" font-family="Verdana" font-size="12.5" lengthAdjust="spacing" textLength="137.5" x="142.1875" y="121.9543">Send SYN-ACK packet</text><polygon fill="#2FA4E7" points="297.3958,167.5781,307.8125,171.7448,297.3958,175.9115,301.5625,171.7448" style="stroke:#2FA4E7;stroke-width:1.0416666666666667;"/><line style="stroke:#2FA4E7;stroke-width:3.125;" x1="114.0625" x2="303.6458" y1="171.7448" y2="171.7448"/><text fill="#343A40" font-family="Verdana" font-size="12.5" lengthAdjust="spacing" textLength="145.8333" x="126.5625" y="161.5051">Send SYN-SACK packet</text><path d="M25,187.3698 L98.9583,187.3698 L98.9583,204.0039 L88.5417,214.4206 L20.8333,214.4206 L20.8333,191.5365 A4.1667,4.1667 0 0 1 25,187.3698 " fill="#E9ECEF" style="stroke:#868E96;stroke-width:1.0416666666666667;"/><rect fill="none" height="126.9206" rx="4.1667" ry="4.1667" style="stroke:#59B6EC;stroke-width:1.0416666666666667;" width="539.5833" x="20.8333" y="187.3698"/><text fill="#033C73" font-family="Verdana" font-size="12.5" font-weight="bold" lengthAdjust="spacing" textLength="20.8333" x="41.6667" y="205.2226">alt</text><text fill="#343A40" font-family="Verdana" font-size="12.5" font-weight="bold" lengthAdjust="spacing" textLength="273.9583" x="119.7917" y="206.2642">[SYN Packet Not Received by Peer B]</text><path d="M35.4167,231.0547 L120.8333,231.0547 L120.8333,247.6888 L110.4167,258.1055 L31.25,258.1055 L31.25,235.2214 A4.1667,4.1667 0 0 1 35.4167,231.0547 " fill="#E9ECEF" style="stroke:#868E96;stroke-width:1.0416666666666667;"/><rect fill="none" height="75.944" rx="4.1667" ry="4.1667" style="stroke:#59B6EC;stroke-width:1.0416666666666667;" width="518.75" x="31.25" y="231.0547"/><text fill="#033C73" font-family="Verdana" font-size="12.5" font-weight="bold" lengthAdjust="spacing" textLength="32.2917" x="52.0833" y="248.9075">loop</text><text fill="#343A40" font-family="Verdana" font-size="12.5" font-weight="bold" lengthAdjust="spacing" textLength="397.9167" x="141.6667" y="249.9491">[until SYN received by Peer B or timeout (3 seconds)]</text><polygon fill="#2FA4E7" points="297.3958,294.4987,307.8125,298.6654,297.3958,302.832,301.5625,298.6654" style="stroke:#2FA4E7;stroke-width:1.0416666666666667;"/><line style="stroke:#2FA4E7;stroke-width:3.125;" x1="114.0625" x2="303.6458" y1="298.6654" y2="298.6654"/><text fill="#343A40" font-family="Verdana" font-size="12.5" lengthAdjust="spacing" textLength="121.875" x="126.5625" y="288.4257">Resend SYN packet</text><path d="M25,328.8737 L98.9583,328.8737 L98.9583,345.5078 L88.5417,355.9245 L20.8333,355.9245 L20.8333,333.0404 A4.1667,4.1667 0 0 1 25,328.8737 " fill="#E9ECEF" style="stroke:#868E96;stroke-width:1.0416666666666667;"/><rect fill="none" height="126.9206" rx="4.1667" ry="4.1667" style="stroke:#59B6EC;stroke-width:1.0416666666666667;" width="583.3333" x="20.8333" y="328.8737"/><text fill="#033C73" font-family="Verdana" font-size="12.5" font-weight="bold" lengthAdjust="spacing" textLength="20.8333" x="41.6667" y="346.7265">alt</text><text fill="#343A40" font-family="Verdana" font-size="12.5" font-weight="bold" lengthAdjust="spacing" textLength="317.7083" x="119.7917" y="347.7681">[SYN-SACK Packet Not Received by Peer B]</text><path d="M35.4167,372.5586 L120.8333,372.5586 L120.8333,389.1927 L110.4167,399.6094 L31.25,399.6094 L31.25,376.7253 A4.1667,4.1667 0 0 1 35.4167,372.5586 " fill="#E9ECEF" style="stroke:#868E96;stroke-width:1.0416666666666667;"/><rect fill="none" height="75.944" rx="4.1667" ry="4.1667" style="stroke:#59B6EC;stroke-width:1.0416666666666667;" width="562.5" x="31.25" y="372.5586"/><text fill="#033C73" font-family="Verdana" font-size="12.5" font-weight="bold" lengthAdjust="spacing" textLength="32.2917" x="52.0833" y="390.4114">loop</text><text fill="#343A40" font-family="Verdana" font-size="12.5" font-weight="bold" lengthAdjust="spacing" textLength="441.6667" x="141.6667" y="391.453">[until SYN-SACK received by Peer B or timeout (3 seconds)]</text><polygon fill="#2FA4E7" points="297.3958,436.0026,307.8125,440.1693,297.3958,444.3359,301.5625,440.1693" style="stroke:#2FA4E7;stroke-width:1.0416666666666667;"/><line style="stroke:#2FA4E7;stroke-width:3.125;" x1="114.0625" x2="303.6458" y1="440.1693" y2="440.1693"/><text fill="#343A40" font-family="Verdana" font-size="12.5" lengthAdjust="spacing" textLength="160.4167" x="126.5625" y="429.9296">Resend SYN-SACK packet</text><polygon fill="#2FA4E7" points="125.5208,490.1367,115.1042,494.3034,125.5208,498.4701,121.3542,494.3034" style="stroke:#2FA4E7;stroke-width:1.0416666666666667;"/><line style="stroke:#2FA4E7;stroke-width:3.125;" x1="119.2708" x2="308.8542" y1="494.3034" y2="494.3034"/><text fill="#343A40" font-family="Verdana" font-size="12.5" lengthAdjust="spacing" textLength="145.8333" x="136.9792" y="484.0637">Connection Established</text><path d="M118.75,512.0117 L118.75,538.0534 A4.1667,4.1667 0 0 0 122.9167,542.2201 L393.75,542.2201 A4.1667,4.1667 0 0 0 397.9167,538.0534 L397.9167,518.2617 L387.5,507.8451 L122.9167,507.8451 A4.1667,4.1667 0 0 0 118.75,512.0117 " fill="url(#g1fmpf3dthz7zx1)" style="stroke:#033C73;stroke-width:1.0416666666666667;"/><path d="M387.5,507.8451 L387.5,516.1784 A2.0833,2.0833 0 0 0 389.5833,518.2617 L397.9167,518.2617 L387.5,507.8451 " fill="url(#g1fmpf3dthz7zx1)" style="stroke:#033C73;stroke-width:1.0416666666666667;"/><text fill="#FFFFFF" font-family="Verdana" font-size="12.5" lengthAdjust="spacing" textLength="246.875" x="130.2083" y="529.8645">Peers can now send data to each other</text><!--SRC=[hPBDIiGm54RtUOhFdIwwSZSBeHrS2SCmNRdC95SRpEIMv7R4jpTDBTBfA0W6aa1olkJavqOwEX4CnS6J3ghNKPnnlGw2FL6iLoEDKjg8EskXBwAqg1wcwGrQ2XRjymwzDcyaIxmfU3FZzJTUrTkdEMBfIkZQ7bNxSwhEfbwAoRu0sB7WG8RScIoE7uL2ev2BP-un176-1EAA0aU8En4FWjjx938SRBehuR5S6XueNTp3IEKXDTRPRFB_gzwK-a_7nJqkHNz_lIs7G1dXWCSa-kXTwiYk7r3bmn6YU-q4_3Adnox1w830xoWoLek6CF827JX_p_W9]--></g></svg>