<svg xmlns="http://www.w3.org/2000/svg" xmlns:xlink="http://www.w3.org/1999/xlink" contentStyleType="text/css" height="1480.2083" preserveAspectRatio="none" style="width:578px;height:1480px;" version="1.1" viewBox="0 0 578 1480" width="578.125" zoomAndPan="magnify">
<rect fill="#ffffff" width="100%" height="100%"/>
<defs><linearGradient id="g19105g7w6ucef0" x1="50%" x2="50%" y1="0%" y2="100%"><stop offset="0%" stop-color="#59B6EC"/><stop offset="100%" stop-color="#2FA4E7"/></linearGradient><linearGradient id="g19105g7w6ucef1" x1="50%" x2="50%" y1="0%" y2="100%"><stop offset="0%" stop-color="#35638F"/><stop offset="100%" stop-color="#033C73"/></linearGradient></defs><g><rect fill="#EDF0F2" height="54.1016" style="stroke:#BABDBF;stroke-width:1.0416666666666667;" width="10.4167" x="431.25" y="167.5456"/><rect fill="#EDF0F2" height="54.1016" style="stroke:#BABDBF;stroke-width:1.0416666666666667;" width="10.4167" x="431.25" y="319.4336"/><rect fill="#EDF0F2" height="54.1016" style="stroke:#BABDBF;stroke-width:1.0416666666666667;" width="10.4167" x="431.25" y="591.0482"/><rect fill="#EDF0F2" height="54.1016" style="stroke:#BABDBF;stroke-width:1.0416666666666667;" width="10.4167" x="431.25" y="742.9362"/><rect fill="#EDF0F2" height="54.1016" style="stroke:#BABDBF;stroke-width:1.0416666666666667;" width="10.4167" x="431.25" y="1029.1016"/><rect fill="#EDF0F2" height="45.8008" style="stroke:#BABDBF;stroke-width:1.0416666666666667;" width="10.4167" x="431.25" y="1180.9896"/><rect fill="none" height="315.2669" rx="4.1667" ry="4.1667" style="stroke:#59B6EC;stroke-width:1.0416666666666667;" width="490.1042" x="48.9583" y="237.2721"/><rect fill="none" height="156.0872" rx="4.1667" ry="4.1667" style="stroke:#59B6EC;stroke-width:1.0416666666666667;" width="469.2708" x="59.375" y="389.1602"/><rect fill="none" height="315.2669" rx="4.1667" ry="4.1667" style="stroke:#59B6EC;stroke-width:1.0416666666666667;" width="490.1042" x="48.9583" y="660.7747"/><rect fill="none" height="156.0872" rx="4.1667" ry="4.1667" style="stroke:#59B6EC;stroke-width:1.0416666666666667;" width="469.2708" x="59.375" y="812.6628"/><rect fill="none" height="314.2578" rx="4.1667" ry="4.1667" style="stroke:#59B6EC;stroke-width:1.0416666666666667;" width="517.7083" x="48.9583" y="1098.8281"/><rect fill="none" height="156.0872" rx="4.1667" ry="4.1667" style="stroke:#59B6EC;stroke-width:1.0416666666666667;" width="469.2708" x="59.375" y="1249.707"/><line style="stroke:#BABDBF;stroke-width:1.0416666666666667;stroke-dasharray:5.0,5.0;" x1="146.875" x2="146.875" y1="51.0091" y2="1430.7943"/><line style="stroke:#BABDBF;stroke-width:1.0416666666666667;stroke-dasharray:5.0,5.0;" x1="435.9375" x2="435.9375" y1="51.0091" y2="1430.7943"/><rect fill="url(#g19105g7w6ucef0)" height="39.5508" rx="4.1667" ry="4.1667" style="stroke:#2FA4E7;stroke-width:1.0416666666666667;" width="70.8333" x="111.4583" y="10.4167"/><text fill="#FFFFFF" font-family="Verdana" font-size="12.5" lengthAdjust="spacing" textLength="45.8333" x="123.9583" y="34.5194">Sender</text><rect fill="url(#g19105g7w6ucef0)" height="39.5508" rx="4.1667" ry="4.1667" style="stroke:#2FA4E7;stroke-width:1.0416666666666667;" width="70.8333" x="111.4583" y="1429.7526"/><text fill="#FFFFFF" font-family="Verdana" font-size="12.5" lengthAdjust="spacing" textLength="45.8333" x="123.9583" y="1453.8554">Sender</text><rect fill="url(#g19105g7w6ucef0)" height="39.5508" rx="4.1667" ry="4.1667" style="stroke:#2FA4E7;stroke-width:1.0416666666666667;" width="80.2083" x="396.3542" y="10.4167"/><text fill="#FFFFFF" font-family="Verdana" font-size="12.5" lengthAdjust="spacing" textLength="55.2083" x="408.8542" y="34.5194">Receiver</text><rect fill="url(#g19105g7w6ucef0)" height="39.5508" rx="4.1667" ry="4.1667" style="stroke:#2FA4E7;stroke-width:1.0416666666666667;" width="80.2083" x="396.3542" y="1429.7526"/><text fill="#FFFFFF" font-family="Verdana" font-size="12.5" lengthAdjust="spacing" textLength="55.2083" x="408.8542" y="1453.8554">Receiver</text><rect fill="#EDF0F2" height="54.1016" style="stroke:#BABDBF;stroke-width:1.0416666666666667;" width="10.4167" x="431.25" y="167.5456"/><rect fill="#EDF0F2" height="54.1016" style="stroke:#BABDBF;stroke-width:1.0416666666666667;" width="10.4167" x="431.25" y="319.4336"/><rect fill="#EDF0F2" height="54.1016" style="stroke:#BABDBF;stroke-width:1.0416666666666667;" width="10.4167" x="431.25" y="591.0482"/><rect fill="#EDF0F2" height="54.1016" style="stroke:#BABDBF;stroke-width:1.0416666666666667;" width="10.4167" x="431.25" y="742.9362"/><rect fill="#EDF0F2" height="54.1016" style="stroke:#BABDBF;stroke-width:1.0416666666666667;" width="10.4167" x="431.25" y="1029.1016"/><rect fill="#EDF0F2" height="45.8008" style="stroke:#BABDBF;stroke-width:1.0416666666666667;" width="10.4167" x="431.25" y="1180.9896"/><path d="M15.625,70.8008 L15.625,111.4258 A4.1667,4.1667 0 0 0 19.7917,115.5924 L275,115.5924 A4.1667,4.1667 0 0 0 279.1667,111.4258 L279.1667,77.0508 L268.75,66.6341 L19.7917,66.6341 A4.1667,4.1667 0 0 0 15.625,70.8008 " fill="url(#g19105g7w6ucef1)" style="stroke:#033C73;stroke-width:1.0416666666666667;"/><path d="M268.75,66.6341 L268.75,74.9674 A2.0833,2.0833 0 0 0 270.8333,77.0508 L279.1667,77.0508 L268.75,66.6341 " fill="url(#g19105g7w6ucef1)" style="stroke:#033C73;stroke-width:1.0416666666666667;"/><text fill="#FFFFFF" font-family="Verdana" font-size="12.5" lengthAdjust="spacing" textLength="162.5" x="27.0833" y="88.6536">Sender creates a transfer</text><text fill="#FFFFFF" font-family="Verdana" font-size="12.5" lengthAdjust="spacing" textLength="231.25" x="27.0833" y="103.2043">and generates a unique transfer_flag</text><polygon fill="#2FA4E7" points="418.75,163.3789,429.1667,167.5456,418.75,171.7122,422.9167,167.5456" style="stroke:#2FA4E7;stroke-width:1.0416666666666667;"/><line style="stroke:#2FA4E7;stroke-width:3.125;" x1="146.875" x2="425" y1="167.5456" y2="167.5456"/><text fill="#343A40" font-family="Verdana" font-size="12.5" lengthAdjust="spacing" textLength="161.4583" x="159.375" y="142.7551">Send packet with File flag</text><text fill="#343A40" font-family="Verdana" font-size="12.5" lengthAdjust="spacing" textLength="250" x="159.375" y="157.3059">Data: file name, extension, transfer_flag</text><polygon fill="#2FA4E7" points="158.3333,217.4805,147.9167,221.6471,158.3333,225.8138,154.1667,221.6471" style="stroke:#2FA4E7;stroke-width:1.0416666666666667;"/><line style="stroke:#2FA4E7;stroke-width:3.125;" x1="152.0833" x2="435.4167" y1="221.6471" y2="221.6471"/><text fill="#343A40" font-family="Verdana" font-size="12.5" lengthAdjust="spacing" textLength="69.7917" x="169.7917" y="196.8567">Send SACK</text><text fill="#343A40" font-family="Verdana" font-size="12.5" lengthAdjust="spacing" textLength="114.5833" x="169.7917" y="211.4075">Data: transfer_flag</text><path d="M53.125,237.2721 L138.5417,237.2721 L138.5417,253.9063 L128.125,264.3229 L48.9583,264.3229 L48.9583,241.4388 A4.1667,4.1667 0 0 1 53.125,237.2721 " fill="#E9ECEF" style="stroke:#868E96;stroke-width:1.0416666666666667;"/><rect fill="none" height="315.2669" rx="4.1667" ry="4.1667" style="stroke:#59B6EC;stroke-width:1.0416666666666667;" width="490.1042" x="48.9583" y="237.2721"/><text fill="#033C73" font-family="Verdana" font-size="12.5" font-weight="bold" lengthAdjust="spacing" textLength="32.2917" x="69.7917" y="255.1249">loop</text><text fill="#343A40" font-family="Verdana" font-size="12.5" font-weight="bold" lengthAdjust="spacing" textLength="115.625" x="159.375" y="256.1666">[Wait for SACK]</text><polygon fill="#2FA4E7" points="418.75,315.2669,429.1667,319.4336,418.75,323.6003,422.9167,319.4336" style="stroke:#2FA4E7;stroke-width:1.0416666666666667;"/><line style="stroke:#2FA4E7;stroke-width:3.125;" x1="146.875" x2="425" y1="319.4336" y2="319.4336"/><text fill="#343A40" font-family="Verdana" font-size="12.5" lengthAdjust="spacing" textLength="239.5833" x="159.375" y="294.6431">Send packet with transfer_flag as Flag</text><text fill="#343A40" font-family="Verdana" font-size="12.5" lengthAdjust="spacing" textLength="90.625" x="159.375" y="309.1939">Data: raw data</text><polygon fill="#2FA4E7" points="158.3333,369.3685,147.9167,373.5352,158.3333,377.7018,154.1667,373.5352" style="stroke:#2FA4E7;stroke-width:1.0416666666666667;"/><line style="stroke:#2FA4E7;stroke-width:3.125;" x1="152.0833" x2="435.4167" y1="373.5352" y2="373.5352"/><text fill="#343A40" font-family="Verdana" font-size="12.5" lengthAdjust="spacing" textLength="61.4583" x="169.7917" y="348.7447">Send ACK</text><text fill="#343A40" font-family="Verdana" font-size="12.5" lengthAdjust="spacing" textLength="114.5833" x="169.7917" y="363.2955">Data: transfer_flag</text><path d="M63.5417,389.1602 L137.5,389.1602 L137.5,405.7943 L127.0833,416.2109 L59.375,416.2109 L59.375,393.3268 A4.1667,4.1667 0 0 1 63.5417,389.1602 " fill="#E9ECEF" style="stroke:#868E96;stroke-width:1.0416666666666667;"/><rect fill="none" height="156.0872" rx="4.1667" ry="4.1667" style="stroke:#59B6EC;stroke-width:1.0416666666666667;" width="469.2708" x="59.375" y="389.1602"/><text fill="#033C73" font-family="Verdana" font-size="12.5" font-weight="bold" lengthAdjust="spacing" textLength="20.8333" x="80.2083" y="407.0129">alt</text><text fill="#343A40" font-family="Verdana" font-size="12.5" font-weight="bold" lengthAdjust="spacing" textLength="164.5833" x="158.3333" y="408.0546">[Wait until keep alive]</text><line style="stroke:#2FA4E7;stroke-width:3.125;" x1="146.875" x2="190.625" y1="456.7708" y2="456.7708"/><line style="stroke:#2FA4E7;stroke-width:3.125;" x1="190.625" x2="190.625" y1="456.7708" y2="470.3125"/><line style="stroke:#2FA4E7;stroke-width:3.125;" x1="147.9167" x2="190.625" y1="470.3125" y2="470.3125"/><polygon fill="#2FA4E7" points="158.3333,466.1458,147.9167,470.3125,158.3333,474.4792,154.1667,470.3125" style="stroke:#2FA4E7;stroke-width:1.0416666666666667;"/><text fill="#343A40" font-family="Verdana" font-size="12.5" lengthAdjust="spacing" textLength="155.2083" x="159.375" y="446.5312">end the msg/file transfer</text><line style="stroke:#59B6EC;stroke-width:1.0416666666666667;stroke-dasharray:2.0,2.0;" x1="59.375" x2="528.6458" y1="479.6875" y2="479.6875"/><text fill="#343A40" font-family="Verdana" font-size="12.5" font-weight="bold" lengthAdjust="spacing" textLength="136.4583" x="69.7917" y="496.4986">[Receive Timeout]</text><polygon fill="#2FA4E7" points="423.9583,532.7474,434.375,536.9141,423.9583,541.0807,428.125,536.9141" style="stroke:#2FA4E7;stroke-width:1.0416666666666667;"/><line style="stroke:#2FA4E7;stroke-width:3.125;" x1="146.875" x2="430.2083" y1="536.9141" y2="536.9141"/><text fill="#343A40" font-family="Verdana" font-size="12.5" lengthAdjust="spacing" textLength="254.1667" x="159.375" y="526.6744">Resend packet with transfer_flag as Flag</text><polygon fill="#2FA4E7" points="418.75,586.8815,429.1667,591.0482,418.75,595.2148,422.9167,591.0482" style="stroke:#2FA4E7;stroke-width:1.0416666666666667;"/><line style="stroke:#2FA4E7;stroke-width:3.125;" x1="146.875" x2="425" y1="591.0482" y2="591.0482"/><text fill="#343A40" font-family="Verdana" font-size="12.5" lengthAdjust="spacing" textLength="155.2083" x="159.375" y="580.8085">Send first packet of data</text><polygon fill="#2FA4E7" points="158.3333,640.9831,147.9167,645.1497,158.3333,649.3164,154.1667,645.1497" style="stroke:#2FA4E7;stroke-width:1.0416666666666667;"/><line style="stroke:#2FA4E7;stroke-width:3.125;" x1="152.0833" x2="435.4167" y1="645.1497" y2="645.1497"/><text fill="#343A40" font-family="Verdana" font-size="12.5" lengthAdjust="spacing" textLength="61.4583" x="169.7917" y="620.3593">Send ACK</text><text fill="#343A40" font-family="Verdana" font-size="12.5" lengthAdjust="spacing" textLength="114.5833" x="169.7917" y="634.9101">Data: transfer_flag</text><path d="M53.125,660.7747 L138.5417,660.7747 L138.5417,677.4089 L128.125,687.8255 L48.9583,687.8255 L48.9583,664.9414 A4.1667,4.1667 0 0 1 53.125,660.7747 " fill="#E9ECEF" style="stroke:#868E96;stroke-width:1.0416666666666667;"/><rect fill="none" height="315.2669" rx="4.1667" ry="4.1667" style="stroke:#59B6EC;stroke-width:1.0416666666666667;" width="490.1042" x="48.9583" y="660.7747"/><text fill="#033C73" font-family="Verdana" font-size="12.5" font-weight="bold" lengthAdjust="spacing" textLength="32.2917" x="69.7917" y="678.6275">loop</text><text fill="#343A40" font-family="Verdana" font-size="12.5" font-weight="bold" lengthAdjust="spacing" textLength="106.25" x="159.375" y="679.6692">[Wait for ACK]</text><polygon fill="#2FA4E7" points="418.75,738.7695,429.1667,742.9362,418.75,747.1029,422.9167,742.9362" style="stroke:#2FA4E7;stroke-width:1.0416666666666667;"/><line style="stroke:#2FA4E7;stroke-width:3.125;" x1="146.875" x2="425" y1="742.9362" y2="742.9362"/><text fill="#343A40" font-family="Verdana" font-size="12.5" lengthAdjust="spacing" textLength="110.4167" x="159.375" y="718.1458">Send next packet</text><text fill="#343A40" font-family="Verdana" font-size="12.5" lengthAdjust="spacing" textLength="104.1667" x="159.375" y="732.6965">Data: actual data</text><polygon fill="#2FA4E7" points="158.3333,792.8711,147.9167,797.0378,158.3333,801.2044,154.1667,797.0378" style="stroke:#2FA4E7;stroke-width:1.0416666666666667;"/><line style="stroke:#2FA4E7;stroke-width:3.125;" x1="152.0833" x2="435.4167" y1="797.0378" y2="797.0378"/><text fill="#343A40" font-family="Verdana" font-size="12.5" lengthAdjust="spacing" textLength="61.4583" x="169.7917" y="772.2473">Send ACK</text><text fill="#343A40" font-family="Verdana" font-size="12.5" lengthAdjust="spacing" textLength="114.5833" x="169.7917" y="786.7981">Data: transfer_flag</text><path d="M63.5417,812.6628 L137.5,812.6628 L137.5,829.2969 L127.0833,839.7135 L59.375,839.7135 L59.375,816.8294 A4.1667,4.1667 0 0 1 63.5417,812.6628 " fill="#E9ECEF" style="stroke:#868E96;stroke-width:1.0416666666666667;"/><rect fill="none" height="156.0872" rx="4.1667" ry="4.1667" style="stroke:#59B6EC;stroke-width:1.0416666666666667;" width="469.2708" x="59.375" y="812.6628"/><text fill="#033C73" font-family="Verdana" font-size="12.5" font-weight="bold" lengthAdjust="spacing" textLength="20.8333" x="80.2083" y="830.5155">alt</text><text fill="#343A40" font-family="Verdana" font-size="12.5" font-weight="bold" lengthAdjust="spacing" textLength="102.0833" x="158.3333" y="831.5572">[Receive ACK]</text><line style="stroke:#2FA4E7;stroke-width:3.125;" x1="146.875" x2="190.625" y1="880.2734" y2="880.2734"/><line style="stroke:#2FA4E7;stroke-width:3.125;" x1="190.625" x2="190.625" y1="880.2734" y2="893.8151"/><line style="stroke:#2FA4E7;stroke-width:3.125;" x1="147.9167" x2="190.625" y1="893.8151" y2="893.8151"/><polygon fill="#2FA4E7" points="158.3333,889.6484,147.9167,893.8151,158.3333,897.9818,154.1667,893.8151" style="stroke:#2FA4E7;stroke-width:1.0416666666666667;"/><text fill="#343A40" font-family="Verdana" font-size="12.5" lengthAdjust="spacing" textLength="186.4583" x="159.375" y="870.0338">Continue sending next packet</text><line style="stroke:#59B6EC;stroke-width:1.0416666666666667;stroke-dasharray:2.0,2.0;" x1="59.375" x2="528.6458" y1="903.1901" y2="903.1901"/><text fill="#343A40" font-family="Verdana" font-size="12.5" font-weight="bold" lengthAdjust="spacing" textLength="136.4583" x="69.7917" y="920.0012">[Receive Timeout]</text><polygon fill="#2FA4E7" points="423.9583,956.25,434.375,960.4167,423.9583,964.5833,428.125,960.4167" style="stroke:#2FA4E7;stroke-width:1.0416666666666667;"/><line style="stroke:#2FA4E7;stroke-width:3.125;" x1="146.875" x2="430.2083" y1="960.4167" y2="960.4167"/><text fill="#343A40" font-family="Verdana" font-size="12.5" lengthAdjust="spacing" textLength="176.0417" x="159.375" y="950.177">Resend packet with File flag</text><polygon fill="#2FA4E7" points="418.75,1024.9349,429.1667,1029.1016,418.75,1033.2682,422.9167,1029.1016" style="stroke:#2FA4E7;stroke-width:1.0416666666666667;"/><line style="stroke:#2FA4E7;stroke-width:3.125;" x1="146.875" x2="425" y1="1029.1016" y2="1029.1016"/><text fill="#343A40" font-family="Verdana" font-size="12.5" lengthAdjust="spacing" textLength="158.3333" x="159.375" y="1004.3111">Send packet with FIN flag</text><text fill="#343A40" font-family="Verdana" font-size="12.5" lengthAdjust="spacing" textLength="114.5833" x="159.375" y="1018.8619">Data: transfer_flag</text><polygon fill="#2FA4E7" points="158.3333,1079.0365,147.9167,1083.2031,158.3333,1087.3698,154.1667,1083.2031" style="stroke:#2FA4E7;stroke-width:1.0416666666666667;"/><line style="stroke:#2FA4E7;stroke-width:3.125;" x1="152.0833" x2="435.4167" y1="1083.2031" y2="1083.2031"/><text fill="#343A40" font-family="Verdana" font-size="12.5" lengthAdjust="spacing" textLength="55.2083" x="169.7917" y="1058.4127">Send FIN</text><text fill="#343A40" font-family="Verdana" font-size="12.5" lengthAdjust="spacing" textLength="114.5833" x="169.7917" y="1072.9635">Data: transfer_flag</text><path d="M53.125,1098.8281 L138.5417,1098.8281 L138.5417,1115.4622 L128.125,1125.8789 L48.9583,1125.8789 L48.9583,1102.9948 A4.1667,4.1667 0 0 1 53.125,1098.8281 " fill="#E9ECEF" style="stroke:#868E96;stroke-width:1.0416666666666667;"/><rect fill="none" height="314.2578" rx="4.1667" ry="4.1667" style="stroke:#59B6EC;stroke-width:1.0416666666666667;" width="517.7083" x="48.9583" y="1098.8281"/><text fill="#033C73" font-family="Verdana" font-size="12.5" font-weight="bold" lengthAdjust="spacing" textLength="32.2917" x="69.7917" y="1116.6809">loop</text><text fill="#343A40" font-family="Verdana" font-size="12.5" font-weight="bold" lengthAdjust="spacing" textLength="101.0417" x="159.375" y="1117.7226">[Wait for FIN]</text><polygon fill="#2FA4E7" points="418.75,1176.8229,429.1667,1180.9896,418.75,1185.1563,422.9167,1180.9896" style="stroke:#2FA4E7;stroke-width:1.0416666666666667;"/><line style="stroke:#2FA4E7;stroke-width:3.125;" x1="146.875" x2="425" y1="1180.9896" y2="1180.9896"/><text fill="#343A40" font-family="Verdana" font-size="12.5" lengthAdjust="spacing" textLength="55.2083" x="159.375" y="1156.1991">Send FIN</text><text fill="#343A40" font-family="Verdana" font-size="12.5" lengthAdjust="spacing" textLength="114.5833" x="159.375" y="1170.7499">Data: transfer_flag</text><line style="stroke:#2FA4E7;stroke-width:3.125;" x1="441.6667" x2="485.4167" y1="1225.7487" y2="1225.7487"/><line style="stroke:#2FA4E7;stroke-width:3.125;" x1="485.4167" x2="485.4167" y1="1225.7487" y2="1239.2904"/><line style="stroke:#2FA4E7;stroke-width:3.125;" x1="436.4583" x2="485.4167" y1="1239.2904" y2="1239.2904"/><polygon fill="#2FA4E7" points="446.875,1235.1237,436.4583,1239.2904,446.875,1243.457,442.7083,1239.2904" style="stroke:#2FA4E7;stroke-width:1.0416666666666667;"/><text fill="#343A40" font-family="Verdana" font-size="12.5" lengthAdjust="spacing" textLength="94.7917" x="454.1667" y="1215.509">Print file details</text><path d="M63.5417,1249.707 L137.5,1249.707 L137.5,1266.3411 L127.0833,1276.7578 L59.375,1276.7578 L59.375,1253.8737 A4.1667,4.1667 0 0 1 63.5417,1249.707 " fill="#E9ECEF" style="stroke:#868E96;stroke-width:1.0416666666666667;"/><rect fill="none" height="156.0872" rx="4.1667" ry="4.1667" style="stroke:#59B6EC;stroke-width:1.0416666666666667;" width="469.2708" x="59.375" y="1249.707"/><text fill="#033C73" font-family="Verdana" font-size="12.5" font-weight="bold" lengthAdjust="spacing" textLength="20.8333" x="80.2083" y="1267.5598">alt</text><text fill="#343A40" font-family="Verdana" font-size="12.5" font-weight="bold" lengthAdjust="spacing" textLength="96.875" x="158.3333" y="1268.6015">[Receive FIN]</text><line style="stroke:#2FA4E7;stroke-width:3.125;" x1="146.875" x2="190.625" y1="1317.3177" y2="1317.3177"/><line style="stroke:#2FA4E7;stroke-width:3.125;" x1="190.625" x2="190.625" y1="1317.3177" y2="1330.8594"/><line style="stroke:#2FA4E7;stroke-width:3.125;" x1="147.9167" x2="190.625" y1="1330.8594" y2="1330.8594"/><polygon fill="#2FA4E7" points="158.3333,1326.6927,147.9167,1330.8594,158.3333,1335.026,154.1667,1330.8594" style="stroke:#2FA4E7;stroke-width:1.0416666666666667;"/><text fill="#343A40" font-family="Verdana" font-size="12.5" lengthAdjust="spacing" textLength="88.5417" x="159.375" y="1307.078">Finish transfer</text><line style="stroke:#59B6EC;stroke-width:1.0416666666666667;stroke-dasharray:2.0,2.0;" x1="59.375" x2="528.6458" y1="1340.2344" y2="1340.2344"/><text fill="#343A40" font-family="Verdana" font-size="12.5" font-weight="bold" lengthAdjust="spacing" textLength="136.4583" x="69.7917" y="1357.0455">[Receive Timeout]</text><polygon fill="#2FA4E7" points="423.9583,1393.2943,434.375,1397.4609,423.9583,1401.6276,428.125,1397.4609" style="stroke:#2FA4E7;stroke-width:1.0416666666666667;"/><line style="stroke:#2FA4E7;stroke-width:3.125;" x1="146.875" x2="430.2083" y1="1397.4609" y2="1397.4609"/><text fill="#343A40" font-family="Verdana" font-size="12.5" lengthAdjust="spacing" textLength="116.6667" x="159.375" y="1387.2213">Resend FIN packet</text><!--SRC=[lLJ1IiD04BtdAyQxuhq7GPI222AjuAKWGp9fXsvdu-v4_NntaspRs5PZBGP2bidEU_FspUoPBcX5a9Eh3Q5a5Jhbd2iKXIb9GQuNcb1E_1Q2cLWbi67PRHjrNyWTeP8717KelYGt4vG2vYJakZ-ry6jDwmqlfS5vbdK05rThcXOKAioNfF3Eke0n6uAuVoQtg3Y2CWO4LtGEzA4adgsSVu76NFajS6_gJul8jYq0fjStzmcw3rBGBanchAtW6LcXjAv9pY0yWwJqu04zZBTaENo78gmQk5tY63seuQ24cBLFHeotH4PRDRKe6rWILI4MzZH_-yeIPMGCNGGhFxzip4YSJGuPloQ29rwHhNKFsEQO9kG77LIBBaKMtyEzKxBpcj1isPxfB_hXB-tmOpT8wDYkjaGIG6iq_sjzT3rPb6hUx_MD3NqXONIZHoppRGKditizuWCjxkNUFVHkXwFlWG1qjEyXztlV3u8FSto3zkWutChDr1MaoCOFDZeLkT_eCGlxnMb6ENgotIAjePy0]--></g></svg>