<svg xmlns="http://www.w3.org/2000/svg" xmlns:xlink="http://www.w3.org/1999/xlink" contentStyleType="text/css" height="1018.75" preserveAspectRatio="none" style="width:768px;height:1018px;" version="1.1" viewBox="0 0 768 1018" width="768.75" zoomAndPan="magnify"><defs><linearGradient id="g1cs1vskwio78p0" x1="50%" x2="50%" y1="0%" y2="100%"><stop offset="0%" stop-color="#59B6EC"/><stop offset="100%" stop-color="#2FA4E7"/></linearGradient><linearGradient id="g1cs1vskwio78p1" x1="50%" x2="50%" y1="0%" y2="100%"><stop offset="0%" stop-color="#35638F"/><stop offset="100%" stop-color="#033C73"/></linearGradient></defs><g><rect fill="#EDF0F2" height="39.5508" style="stroke:#BABDBF;stroke-width:1.0416666666666667;" width="10.4167" x="107.8125" y="92.6432"/><rect fill="#EDF0F2" height="39.5508" style="stroke:#BABDBF;stroke-width:1.0416666666666667;" width="10.4167" x="107.8125" y="239.388"/><rect fill="#EDF0F2" height="39.5508" style="stroke:#BABDBF;stroke-width:1.0416666666666667;" width="10.4167" x="107.8125" y="568.2943"/><rect fill="#EDF0F2" height="39.5508" style="stroke:#BABDBF;stroke-width:1.0416666666666667;" width="10.4167" x="107.8125" y="903.4505"/><rect fill="#EDF0F2" height="339.2904" style="stroke:#EDF0F2;stroke-width:1.0416666666666667;" width="10.4167" x="484.8958" y="61.4258"/><line style="stroke:#BABDBF;stroke-width:1.0416666666666667;" x1="484.8958" x2="484.8958" y1="61.4258" y2="400.7161"/><line style="stroke:#BABDBF;stroke-width:1.0416666666666667;" x1="495.3125" x2="495.3125" y1="61.4258" y2="400.7161"/><line style="stroke:#BABDBF;stroke-width:1.0416666666666667;" x1="484.8958" x2="495.3125" y1="61.4258" y2="61.4258"/><rect fill="#EDF0F2" height="518.3268" style="stroke:#EDF0F2;stroke-width:1.0416666666666667;" width="10.4167" x="484.8958" y="440.2995"/><line style="stroke:#BABDBF;stroke-width:1.0416666666666667;" x1="484.8958" x2="484.8958" y1="440.2995" y2="958.6263"/><line style="stroke:#BABDBF;stroke-width:1.0416666666666667;" x1="495.3125" x2="495.3125" y1="440.2995" y2="958.6263"/><line style="stroke:#BABDBF;stroke-width:1.0416666666666667;" x1="484.8958" x2="495.3125" y1="958.6263" y2="958.6263"/><rect fill="none" height="168.5872" rx="4.1667" ry="4.1667" style="stroke:#59B6EC;stroke-width:1.0416666666666667;" width="736.9792" x="20.8333" y="447.5911"/><rect fill="none" height="320.5729" rx="4.1667" ry="4.1667" style="stroke:#59B6EC;stroke-width:1.0416666666666667;" width="685.9375" x="20.8333" y="630.7617"/><line style="stroke:#BABDBF;stroke-width:1.0416666666666667;stroke-dasharray:5.0,5.0;" x1="112.5" x2="112.5" y1="51.0091" y2="400.7161"/><line style="stroke:#BABDBF;stroke-width:1.0416666666666667;stroke-dasharray:1.0,4.0;" x1="112.5" x2="112.5" y1="400.7161" y2="440.2995"/><line style="stroke:#BABDBF;stroke-width:1.0416666666666667;stroke-dasharray:5.0,5.0;" x1="112.5" x2="112.5" y1="440.2995" y2="969.043"/><line style="stroke:#BABDBF;stroke-width:1.0416666666666667;stroke-dasharray:5.0,5.0;" x1="490.1042" x2="490.1042" y1="51.0091" y2="400.7161"/><line style="stroke:#BABDBF;stroke-width:1.0416666666666667;stroke-dasharray:1.0,4.0;" x1="490.1042" x2="490.1042" y1="400.7161" y2="440.2995"/><line style="stroke:#BABDBF;stroke-width:1.0416666666666667;stroke-dasharray:5.0,5.0;" x1="490.1042" x2="490.1042" y1="440.2995" y2="969.043"/><rect fill="url(#g1cs1vskwio78p0)" height="39.5508" rx="4.1667" ry="4.1667" style="stroke:#2FA4E7;stroke-width:1.0416666666666667;" width="80.2083" x="72.9167" y="10.4167"/><text fill="#FFFFFF" font-family="Verdana" font-size="12.5" lengthAdjust="spacing" textLength="55.2083" x="85.4167" y="34.5194">Receiver</text><rect fill="url(#g1cs1vskwio78p0)" height="39.5508" rx="4.1667" ry="4.1667" style="stroke:#2FA4E7;stroke-width:1.0416666666666667;" width="80.2083" x="72.9167" y="968.0013"/><text fill="#FFFFFF" font-family="Verdana" font-size="12.5" lengthAdjust="spacing" textLength="55.2083" x="85.4167" y="992.1041">Receiver</text><rect fill="url(#g1cs1vskwio78p0)" height="39.5508" rx="4.1667" ry="4.1667" style="stroke:#2FA4E7;stroke-width:1.0416666666666667;" width="70.8333" x="454.6875" y="10.4167"/><text fill="#FFFFFF" font-family="Verdana" font-size="12.5" lengthAdjust="spacing" textLength="45.8333" x="467.1875" y="34.5194">Sender</text><rect fill="url(#g1cs1vskwio78p0)" height="39.5508" rx="4.1667" ry="4.1667" style="stroke:#2FA4E7;stroke-width:1.0416666666666667;" width="70.8333" x="454.6875" y="968.0013"/><text fill="#FFFFFF" font-family="Verdana" font-size="12.5" lengthAdjust="spacing" textLength="45.8333" x="467.1875" y="992.1041">Sender</text><rect fill="#EDF0F2" height="39.5508" style="stroke:#BABDBF;stroke-width:1.0416666666666667;" width="10.4167" x="107.8125" y="92.6432"/><rect fill="#EDF0F2" height="39.5508" style="stroke:#BABDBF;stroke-width:1.0416666666666667;" width="10.4167" x="107.8125" y="239.388"/><rect fill="#EDF0F2" height="39.5508" style="stroke:#BABDBF;stroke-width:1.0416666666666667;" width="10.4167" x="107.8125" y="568.2943"/><rect fill="#EDF0F2" height="39.5508" style="stroke:#BABDBF;stroke-width:1.0416666666666667;" width="10.4167" x="107.8125" y="903.4505"/><rect fill="#EDF0F2" height="339.2904" style="stroke:#EDF0F2;stroke-width:1.0416666666666667;" width="10.4167" x="484.8958" y="61.4258"/><line style="stroke:#BABDBF;stroke-width:1.0416666666666667;" x1="484.8958" x2="484.8958" y1="61.4258" y2="400.7161"/><line style="stroke:#BABDBF;stroke-width:1.0416666666666667;" x1="495.3125" x2="495.3125" y1="61.4258" y2="400.7161"/><line style="stroke:#BABDBF;stroke-width:1.0416666666666667;" x1="484.8958" x2="495.3125" y1="61.4258" y2="61.4258"/><rect fill="#EDF0F2" height="518.3268" style="stroke:#EDF0F2;stroke-width:1.0416666666666667;" width="10.4167" x="484.8958" y="440.2995"/><line style="stroke:#BABDBF;stroke-width:1.0416666666666667;" x1="484.8958" x2="484.8958" y1="440.2995" y2="958.6263"/><line style="stroke:#BABDBF;stroke-width:1.0416666666666667;" x1="495.3125" x2="495.3125" y1="440.2995" y2="958.6263"/><line style="stroke:#BABDBF;stroke-width:1.0416666666666667;" x1="484.8958" x2="495.3125" y1="958.6263" y2="958.6263"/><polygon fill="#2FA4E7" points="129.6875,88.4766,119.2708,92.6432,129.6875,96.8099,125.5208,92.6432" style="stroke:#2FA4E7;stroke-width:1.0416666666666667;"/><line style="stroke:#2FA4E7;stroke-width:3.125;" x1="123.4375" x2="483.8542" y1="92.6432" y2="92.6432"/><text fill="#343A40" font-family="Verdana" font-size="12.5" lengthAdjust="spacing" textLength="129.1667" x="141.1458" y="82.4036">Send packets (1-10)</text><polygon fill="#2FA4E7" points="472.3958,128.0273,482.8125,132.194,472.3958,136.3607,476.5625,132.194" style="stroke:#2FA4E7;stroke-width:1.0416666666666667;"/><line style="stroke:#2FA4E7;stroke-width:3.125;" x1="113.0208" x2="478.6458" y1="132.194" y2="132.194"/><text fill="#343A40" font-family="Verdana" font-size="12.5" lengthAdjust="spacing" textLength="331.25" x="125.5208" y="121.9543">ACK1, ACK2, ACK3, ACK6, ACK7, ACK8, ACK9, ACK10</text><line style="stroke:#2FA4E7;stroke-width:3.125;" x1="495.3125" x2="539.0625" y1="186.2956" y2="186.2956"/><line style="stroke:#2FA4E7;stroke-width:3.125;" x1="539.0625" x2="539.0625" y1="186.2956" y2="199.8372"/><line style="stroke:#2FA4E7;stroke-width:3.125;" x1="496.3542" x2="539.0625" y1="199.8372" y2="199.8372"/><polygon fill="#2FA4E7" points="506.7708,195.6706,496.3542,199.8372,506.7708,204.0039,502.6042,199.8372" style="stroke:#2FA4E7;stroke-width:1.0416666666666667;"/><text fill="#343A40" font-family="Verdana" font-size="12.5" lengthAdjust="spacing" textLength="172.9167" x="507.8125" y="161.5051">Interpret acknowledgments</text><text fill="#343A40" font-family="Verdana" font-size="12.5" lengthAdjust="spacing" textLength="197.9167" x="507.8125" y="176.0559">and identify successful packets</text><polygon fill="#2FA4E7" points="129.6875,235.2214,119.2708,239.388,129.6875,243.5547,125.5208,239.388" style="stroke:#2FA4E7;stroke-width:1.0416666666666667;"/><line style="stroke:#2FA4E7;stroke-width:3.125;" x1="123.4375" x2="483.8542" y1="239.388" y2="239.388"/><text fill="#343A40" font-family="Verdana" font-size="12.5" lengthAdjust="spacing" textLength="201.0417" x="141.1458" y="229.1484">Send additional packets (11-18)</text><polygon fill="#2FA4E7" points="472.3958,274.7721,482.8125,278.9388,472.3958,283.1055,476.5625,278.9388" style="stroke:#2FA4E7;stroke-width:1.0416666666666667;"/><line style="stroke:#2FA4E7;stroke-width:3.125;" x1="113.0208" x2="478.6458" y1="278.9388" y2="278.9388"/><text fill="#343A40" font-family="Verdana" font-size="12.5" lengthAdjust="spacing" textLength="284.375" x="125.5208" y="268.6991">ACK11, ACK12, ACK13, ACK16, ACK17, ACK18</text><line style="stroke:#2FA4E7;stroke-width:3.125;" x1="495.3125" x2="539.0625" y1="333.0404" y2="333.0404"/><line style="stroke:#2FA4E7;stroke-width:3.125;" x1="539.0625" x2="539.0625" y1="333.0404" y2="346.582"/><line style="stroke:#2FA4E7;stroke-width:3.125;" x1="496.3542" x2="539.0625" y1="346.582" y2="346.582"/><polygon fill="#2FA4E7" points="506.7708,342.4154,496.3542,346.582,506.7708,350.7487,502.6042,346.582" style="stroke:#2FA4E7;stroke-width:1.0416666666666667;"/><text fill="#343A40" font-family="Verdana" font-size="12.5" lengthAdjust="spacing" textLength="172.9167" x="507.8125" y="308.2499">Interpret acknowledgments</text><text fill="#343A40" font-family="Verdana" font-size="12.5" lengthAdjust="spacing" textLength="197.9167" x="507.8125" y="322.8007">and identify successful packets</text><path d="M500,364.2904 L500,390.332 A4.1667,4.1667 0 0 0 504.1667,394.4987 L671.875,394.4987 A4.1667,4.1667 0 0 0 676.0417,390.332 L676.0417,370.5404 L665.625,360.1237 L504.1667,360.1237 A4.1667,4.1667 0 0 0 500,364.2904 " fill="url(#g1cs1vskwio78p1)" style="stroke:#033C73;stroke-width:1.0416666666666667;"/><path d="M665.625,360.1237 L665.625,368.457 A2.0833,2.0833 0 0 0 667.7083,370.5404 L676.0417,370.5404 L665.625,360.1237 " fill="url(#g1cs1vskwio78p1)" style="stroke:#033C73;stroke-width:1.0416666666666667;"/><text fill="#FFFFFF" font-family="Verdana" font-size="12.5" lengthAdjust="spacing" textLength="143.75" x="511.4583" y="382.1431">Continue the process...</text><path d="M25,447.5911 L98.9583,447.5911 L98.9583,464.2253 L88.5417,474.6419 L20.8333,474.6419 L20.8333,451.7578 A4.1667,4.1667 0 0 1 25,447.5911 " fill="#E9ECEF" style="stroke:#868E96;stroke-width:1.0416666666666667;"/><rect fill="none" height="168.5872" rx="4.1667" ry="4.1667" style="stroke:#59B6EC;stroke-width:1.0416666666666667;" width="736.9792" x="20.8333" y="447.5911"/><text fill="#033C73" font-family="Verdana" font-size="12.5" font-weight="bold" lengthAdjust="spacing" textLength="20.8333" x="41.6667" y="465.4439">alt</text><text fill="#343A40" font-family="Verdana" font-size="12.5" font-weight="bold" lengthAdjust="spacing" textLength="227.0833" x="119.7917" y="466.4856">[Timeout and Retransmission]</text><line style="stroke:#2FA4E7;stroke-width:3.125;" x1="495.3125" x2="539.0625" y1="515.2018" y2="515.2018"/><line style="stroke:#2FA4E7;stroke-width:3.125;" x1="539.0625" x2="539.0625" y1="515.2018" y2="528.7435"/><line style="stroke:#2FA4E7;stroke-width:3.125;" x1="496.3542" x2="539.0625" y1="528.7435" y2="528.7435"/><polygon fill="#2FA4E7" points="506.7708,524.5768,496.3542,528.7435,506.7708,532.9102,502.6042,528.7435" style="stroke:#2FA4E7;stroke-width:1.0416666666666667;"/><text fill="#343A40" font-family="Verdana" font-size="12.5" lengthAdjust="spacing" textLength="232.2917" x="507.8125" y="504.9622">Check Timer for packets with no ACK</text><polygon fill="#2FA4E7" points="129.6875,564.1276,119.2708,568.2943,129.6875,572.4609,125.5208,568.2943" style="stroke:#2FA4E7;stroke-width:1.0416666666666667;"/><line style="stroke:#2FA4E7;stroke-width:3.125;" x1="123.4375" x2="483.8542" y1="568.2943" y2="568.2943"/><text fill="#343A40" font-family="Verdana" font-size="12.5" lengthAdjust="spacing" textLength="216.6667" x="141.1458" y="558.0546">Retransmit corresponding packets</text><polygon fill="#2FA4E7" points="472.3958,603.6784,482.8125,607.8451,472.3958,612.0117,476.5625,607.8451" style="stroke:#2FA4E7;stroke-width:1.0416666666666667;"/><line style="stroke:#2FA4E7;stroke-width:3.125;" x1="113.0208" x2="478.6458" y1="607.8451" y2="607.8451"/><text fill="#343A40" font-family="Verdana" font-size="12.5" lengthAdjust="spacing" textLength="228.125" x="125.5208" y="597.6054">Acknowledge retransmitted packets</text><path d="M25,630.7617 L98.9583,630.7617 L98.9583,647.3958 L88.5417,657.8125 L20.8333,657.8125 L20.8333,634.9284 A4.1667,4.1667 0 0 1 25,630.7617 " fill="#E9ECEF" style="stroke:#868E96;stroke-width:1.0416666666666667;"/><rect fill="none" height="320.5729" rx="4.1667" ry="4.1667" style="stroke:#59B6EC;stroke-width:1.0416666666666667;" width="685.9375" x="20.8333" y="630.7617"/><text fill="#033C73" font-family="Verdana" font-size="12.5" font-weight="bold" lengthAdjust="spacing" textLength="20.8333" x="41.6667" y="648.6145">alt</text><text fill="#343A40" font-family="Verdana" font-size="12.5" font-weight="bold" lengthAdjust="spacing" textLength="120.8333" x="119.7917" y="649.6562">[Error Handling]</text><line style="stroke:#2FA4E7;stroke-width:3.125;" x1="113.0208" x2="156.7708" y1="698.3724" y2="698.3724"/><line style="stroke:#2FA4E7;stroke-width:3.125;" x1="156.7708" x2="156.7708" y1="698.3724" y2="711.9141"/><line style="stroke:#2FA4E7;stroke-width:3.125;" x1="114.0625" x2="156.7708" y1="711.9141" y2="711.9141"/><polygon fill="#2FA4E7" points="124.4792,707.7474,114.0625,711.9141,124.4792,716.0807,120.3125,711.9141" style="stroke:#2FA4E7;stroke-width:1.0416666666666667;"/><text fill="#343A40" font-family="Verdana" font-size="12.5" lengthAdjust="spacing" textLength="155.2083" x="125.5208" y="688.1327">Detect corrupted packet</text><line style="stroke:#2FA4E7;stroke-width:3.125;" x1="113.0208" x2="156.7708" y1="751.4648" y2="751.4648"/><line style="stroke:#2FA4E7;stroke-width:3.125;" x1="156.7708" x2="156.7708" y1="751.4648" y2="765.0065"/><line style="stroke:#2FA4E7;stroke-width:3.125;" x1="114.0625" x2="156.7708" y1="765.0065" y2="765.0065"/><polygon fill="#2FA4E7" points="124.4792,760.8398,114.0625,765.0065,124.4792,769.1732,120.3125,765.0065" style="stroke:#2FA4E7;stroke-width:1.0416666666666667;"/><text fill="#343A40" font-family="Verdana" font-size="12.5" lengthAdjust="spacing" textLength="161.4583" x="125.5208" y="741.2252">Discard corrupted packet</text><path d="M117.7083,782.7148 L117.7083,808.7565 A4.1667,4.1667 0 0 0 121.875,812.9232 L291.6667,812.9232 A4.1667,4.1667 0 0 0 295.8333,808.7565 L295.8333,788.9648 L285.4167,778.5482 L121.875,778.5482 A4.1667,4.1667 0 0 0 117.7083,782.7148 " fill="url(#g1cs1vskwio78p1)" style="stroke:#033C73;stroke-width:1.0416666666666667;"/><path d="M285.4167,778.5482 L285.4167,786.8815 A2.0833,2.0833 0 0 0 287.5,788.9648 L295.8333,788.9648 L285.4167,778.5482 " fill="url(#g1cs1vskwio78p1)" style="stroke:#033C73;stroke-width:1.0416666666666667;"/><text fill="#FFFFFF" font-family="Verdana" font-size="12.5" lengthAdjust="spacing" textLength="145.8333" x="129.1667" y="800.5676">Does not notify Sender</text><line style="stroke:#2FA4E7;stroke-width:3.125;" x1="495.3125" x2="539.0625" y1="850.3581" y2="850.3581"/><line style="stroke:#2FA4E7;stroke-width:3.125;" x1="539.0625" x2="539.0625" y1="850.3581" y2="863.8997"/><line style="stroke:#2FA4E7;stroke-width:3.125;" x1="496.3542" x2="539.0625" y1="863.8997" y2="863.8997"/><polygon fill="#2FA4E7" points="506.7708,859.7331,496.3542,863.8997,506.7708,868.0664,502.6042,863.8997" style="stroke:#2FA4E7;stroke-width:1.0416666666666667;"/><text fill="#343A40" font-family="Verdana" font-size="12.5" lengthAdjust="spacing" textLength="181.25" x="507.8125" y="840.1184">(No ACK received within TTL)</text><polygon fill="#2FA4E7" points="129.6875,899.2839,119.2708,903.4505,129.6875,907.6172,125.5208,903.4505" style="stroke:#2FA4E7;stroke-width:1.0416666666666667;"/><line style="stroke:#2FA4E7;stroke-width:3.125;" x1="123.4375" x2="483.8542" y1="903.4505" y2="903.4505"/><text fill="#343A40" font-family="Verdana" font-size="12.5" lengthAdjust="spacing" textLength="216.6667" x="141.1458" y="893.2109">Retransmit corresponding packets</text><polygon fill="#2FA4E7" points="472.3958,938.8346,482.8125,943.0013,472.3958,947.168,476.5625,943.0013" style="stroke:#2FA4E7;stroke-width:1.0416666666666667;"/><line style="stroke:#2FA4E7;stroke-width:3.125;" x1="113.0208" x2="478.6458" y1="943.0013" y2="943.0013"/><text fill="#343A40" font-family="Verdana" font-size="12.5" lengthAdjust="spacing" textLength="228.125" x="125.5208" y="932.7616">Acknowledge retransmitted packets</text><!--SRC=[rPCnJyCm48Nt_8fZQoLQrI11wO242X88rA5qPB7iQsiriIFxqef_pyMcIKiA4WC3aNAnahpd-zubPxJ60a6XhtAKDYkb9wDCAIt171MQBVeiauhCLXB2ArhDDz851hVDEvFu24gfDaW1Uc8WHlrMrrZj5xKskKpWRleipkjw4Ujbh5UnNiSwZlKcLZ7AD7Pzsuxsha-Mq9SU2RWdwtOvwbM1biARbTofqRmsotS8bL8OmhBAzzr_ZoUrDcISbVa1AQEEVuEQM4M25ObM95oHUCNuxnbdZgszMQq9tB8nd3eMs0g1FmielQjLm-4mosAHES725EWgtf3zvqXUsb2O43YK3FZezZXTezf4cOUbyqrmEqDhiAxc_Q9iGsys853EUmobizhOLKDH2xj1rNTFfj-4nEYDDQ4-yZiLFHia_0VlcU6HwNFkexDJs_ez4ghKTbMsM_oaC459hqzBZiTr878OE4MgpthIdp_ewL7qPZ5kPezo7MTWB2mMB_r_CeE31ydn0m00]--></g></svg>