<svg xmlns="http://www.w3.org/2000/svg" xmlns:xlink="http://www.w3.org/1999/xlink" contentStyleType="text/css" height="1390.625" preserveAspectRatio="none" style="width:1050px;height:1390px;" version="1.1" viewBox="0 0 1050 1390" width="1050" zoomAndPan="magnify">
<rect fill="#ffffff" width="100%" height="100%"/>
<defs><linearGradient id="gk4n93hev73cf0" x1="50%" x2="50%" y1="0%" y2="100%"><stop offset="0%" stop-color="#59B6EC"/><stop offset="100%" stop-color="#2FA4E7"/></linearGradient><linearGradient id="gk4n93hev73cf1" x1="50%" x2="50%" y1="0%" y2="100%"><stop offset="0%" stop-color="#35638F"/><stop offset="100%" stop-color="#033C73"/></linearGradient></defs><g><line style="stroke:#BABDBF;stroke-width:1.0416666666666667;stroke-dasharray:5.0,5.0;" x1="135.4167" x2="135.4167" y1="51.0091" y2="1341.3086"/><line style="stroke:#BABDBF;stroke-width:1.0416666666666667;stroke-dasharray:5.0,5.0;" x1="334.8958" x2="334.8958" y1="51.0091" y2="1341.3086"/><line style="stroke:#BABDBF;stroke-width:1.0416666666666667;stroke-dasharray:5.0,5.0;" x1="535.4167" x2="535.4167" y1="51.0091" y2="1341.3086"/><line style="stroke:#BABDBF;stroke-width:1.0416666666666667;stroke-dasharray:5.0,5.0;" x1="776.0417" x2="776.0417" y1="51.0091" y2="1341.3086"/><rect fill="url(#gk4n93hev73cf0)" height="39.5508" rx="4.1667" ry="4.1667" style="stroke:#2FA4E7;stroke-width:1.0416666666666667;" width="54.1667" x="108.3333" y="10.4167"/><text fill="#FFFFFF" font-family="Verdana" font-size="12.5" lengthAdjust="spacing" textLength="29.1667" x="120.8333" y="34.5194">Host</text><rect fill="url(#gk4n93hev73cf0)" height="39.5508" rx="4.1667" ry="4.1667" style="stroke:#2FA4E7;stroke-width:1.0416666666666667;" width="54.1667" x="108.3333" y="1340.2669"/><text fill="#FFFFFF" font-family="Verdana" font-size="12.5" lengthAdjust="spacing" textLength="29.1667" x="120.8333" y="1364.3697">Host</text><rect fill="url(#gk4n93hev73cf0)" height="39.5508" rx="4.1667" ry="4.1667" style="stroke:#2FA4E7;stroke-width:1.0416666666666667;" width="94.7917" x="288.0208" y="10.4167"/><text fill="#FFFFFF" font-family="Verdana" font-size="12.5" lengthAdjust="spacing" textLength="69.7917" x="300.5208" y="34.5194">Connection</text><rect fill="url(#gk4n93hev73cf0)" height="39.5508" rx="4.1667" ry="4.1667" style="stroke:#2FA4E7;stroke-width:1.0416666666666667;" width="94.7917" x="288.0208" y="1340.2669"/><text fill="#FFFFFF" font-family="Verdana" font-size="12.5" lengthAdjust="spacing" textLength="69.7917" x="300.5208" y="1364.3697">Connection</text><rect fill="url(#gk4n93hev73cf0)" height="39.5508" rx="4.1667" ry="4.1667" style="stroke:#2FA4E7;stroke-width:1.0416666666666667;" width="77.0833" x="496.875" y="10.4167"/><text fill="#FFFFFF" font-family="Verdana" font-size="12.5" lengthAdjust="spacing" textLength="52.0833" x="509.375" y="34.5194">Transfer</text><rect fill="url(#gk4n93hev73cf0)" height="39.5508" rx="4.1667" ry="4.1667" style="stroke:#2FA4E7;stroke-width:1.0416666666666667;" width="77.0833" x="496.875" y="1340.2669"/><text fill="#FFFFFF" font-family="Verdana" font-size="12.5" lengthAdjust="spacing" textLength="52.0833" x="509.375" y="1364.3697">Transfer</text><rect fill="url(#gk4n93hev73cf0)" height="39.5508" rx="4.1667" ry="4.1667" style="stroke:#2FA4E7;stroke-width:1.0416666666666667;" width="41.6667" x="755.2083" y="10.4167"/><text fill="#FFFFFF" font-family="Verdana" font-size="12.5" lengthAdjust="spacing" textLength="16.6667" x="767.7083" y="34.5194">V4</text><rect fill="url(#gk4n93hev73cf0)" height="39.5508" rx="4.1667" ry="4.1667" style="stroke:#2FA4E7;stroke-width:1.0416666666666667;" width="41.6667" x="755.2083" y="1340.2669"/><text fill="#FFFFFF" font-family="Verdana" font-size="12.5" lengthAdjust="spacing" textLength="16.6667" x="767.7083" y="1364.3697">V4</text><path d="M15.625,70.8008 L15.625,169.7591 A4.1667,4.1667 0 0 0 19.7917,173.9258 L252.0833,173.9258 A4.1667,4.1667 0 0 0 256.25,169.7591 L256.25,77.0508 L245.8333,66.6341 L19.7917,66.6341 A4.1667,4.1667 0 0 0 15.625,70.8008 " fill="url(#gk4n93hev73cf1)" style="stroke:#033C73;stroke-width:1.0416666666666667;"/><path d="M245.8333,66.6341 L245.8333,74.9674 A2.0833,2.0833 0 0 0 247.9167,77.0508 L256.25,77.0508 L245.8333,66.6341 " fill="url(#gk4n93hev73cf1)" style="stroke:#033C73;stroke-width:1.0416666666666667;"/><text fill="#FFFFFF" font-family="Verdana" font-size="12.5" lengthAdjust="spacing" textLength="98.9583" x="27.0833" y="88.6536">Responsible for</text><text fill="#FFFFFF" font-family="Verdana" font-size="12.5" lengthAdjust="spacing" textLength="106.25" x="27.0833" y="103.2043">reading packets,</text><text fill="#FFFFFF" font-family="Verdana" font-size="12.5" lengthAdjust="spacing" textLength="135.4167" x="27.0833" y="117.7551">creating connections,</text><text fill="#FFFFFF" font-family="Verdana" font-size="12.5" lengthAdjust="spacing" textLength="108.3333" x="27.0833" y="132.3059">sending packets,</text><text fill="#FFFFFF" font-family="Verdana" font-size="12.5" lengthAdjust="spacing" textLength="208.3333" x="27.0833" y="146.8567">putting packets into connections,</text><text fill="#FFFFFF" font-family="Verdana" font-size="12.5" lengthAdjust="spacing" textLength="164.5833" x="27.0833" y="161.4075">and deleting dead events.</text><path d="M191.6667,189.3555 L191.6667,273.7305 A4.1667,4.1667 0 0 0 195.8333,277.8971 L475,277.8971 A4.1667,4.1667 0 0 0 479.1667,273.7305 L479.1667,195.6055 L468.75,185.1888 L195.8333,185.1888 A4.1667,4.1667 0 0 0 191.6667,189.3555 " fill="url(#gk4n93hev73cf1)" style="stroke:#033C73;stroke-width:1.0416666666666667;"/><path d="M468.75,185.1888 L468.75,193.5221 A2.0833,2.0833 0 0 0 470.8333,195.6055 L479.1667,195.6055 L468.75,185.1888 " fill="url(#gk4n93hev73cf1)" style="stroke:#033C73;stroke-width:1.0416666666666667;"/><text fill="#FFFFFF" font-family="Verdana" font-size="12.5" lengthAdjust="spacing" textLength="98.9583" x="203.125" y="207.2083">Responsible for</text><text fill="#FFFFFF" font-family="Verdana" font-size="12.5" lengthAdjust="spacing" textLength="115.625" x="203.125" y="221.759">creating transfers,</text><text fill="#FFFFFF" font-family="Verdana" font-size="12.5" lengthAdjust="spacing" textLength="147.9167" x="203.125" y="236.3098">keep alive functionality,</text><text fill="#FFFFFF" font-family="Verdana" font-size="12.5" lengthAdjust="spacing" textLength="255.2083" x="203.125" y="250.8606">and approving connection establishment</text><text fill="#FFFFFF" font-family="Verdana" font-size="12.5" lengthAdjust="spacing" textLength="100" x="203.125" y="265.4114">and termination.</text><path d="M383.3333,293.3594 L383.3333,348.5677 A4.1667,4.1667 0 0 0 387.5,352.7344 L682.2917,352.7344 A4.1667,4.1667 0 0 0 686.4583,348.5677 L686.4583,299.6094 L676.0417,289.1927 L387.5,289.1927 A4.1667,4.1667 0 0 0 383.3333,293.3594 " fill="url(#gk4n93hev73cf1)" style="stroke:#033C73;stroke-width:1.0416666666666667;"/><path d="M676.0417,289.1927 L676.0417,297.526 A2.0833,2.0833 0 0 0 678.125,299.6094 L686.4583,299.6094 L676.0417,289.1927 " fill="url(#gk4n93hev73cf1)" style="stroke:#033C73;stroke-width:1.0416666666666667;"/><text fill="#FFFFFF" font-family="Verdana" font-size="12.5" lengthAdjust="spacing" textLength="98.9583" x="394.7917" y="311.2122">Responsible for</text><text fill="#FFFFFF" font-family="Verdana" font-size="12.5" lengthAdjust="spacing" textLength="270.8333" x="394.7917" y="325.7629">sending and receiving files and messages,</text><text fill="#FFFFFF" font-family="Verdana" font-size="12.5" lengthAdjust="spacing" textLength="253.125" x="394.7917" y="340.3137">acknowledgments, and retransmissions.</text><path d="M658.3333,368.2617 L658.3333,438.0534 A4.1667,4.1667 0 0 0 662.5,442.2201 L889.5833,442.2201 A4.1667,4.1667 0 0 0 893.75,438.0534 L893.75,374.5117 L883.3333,364.0951 L662.5,364.0951 A4.1667,4.1667 0 0 0 658.3333,368.2617 " fill="url(#gk4n93hev73cf1)" style="stroke:#033C73;stroke-width:1.0416666666666667;"/><path d="M883.3333,364.0951 L883.3333,372.4284 A2.0833,2.0833 0 0 0 885.4167,374.5117 L893.75,374.5117 L883.3333,364.0951 " fill="url(#gk4n93hev73cf1)" style="stroke:#033C73;stroke-width:1.0416666666666667;"/><text fill="#FFFFFF" font-family="Verdana" font-size="12.5" lengthAdjust="spacing" textLength="192.7083" x="669.7917" y="386.1145">Manages events and executes</text><text fill="#FFFFFF" font-family="Verdana" font-size="12.5" lengthAdjust="spacing" textLength="186.4583" x="669.7917" y="400.6653">their corresponding handlers.</text><text fill="#FFFFFF" font-family="Verdana" font-size="12.5" lengthAdjust="spacing" textLength="197.9167" x="669.7917" y="415.2161">Efficient and lightweight design.</text><text fill="#FFFFFF" font-family="Verdana" font-size="12.5" lengthAdjust="spacing" textLength="203.125" x="669.7917" y="429.7668">Implemented using a while loop.</text><polygon fill="#2FA4E7" points="146.875,475.3906,136.4583,479.5573,146.875,483.724,142.7083,479.5573" style="stroke:#2FA4E7;stroke-width:1.0416666666666667;"/><line style="stroke:#2FA4E7;stroke-width:3.125;" x1="140.625" x2="775" y1="479.5573" y2="479.5573"/><text fill="#343A40" font-family="Verdana" font-size="12.5" lengthAdjust="spacing" textLength="93.75" x="158.3333" y="469.3176">Event Emission</text><line style="stroke:#2FA4E7;stroke-width:3.125;" x1="135.4167" x2="179.1667" y1="533.6589" y2="533.6589"/><line style="stroke:#2FA4E7;stroke-width:3.125;" x1="179.1667" x2="179.1667" y1="533.6589" y2="547.2005"/><line style="stroke:#2FA4E7;stroke-width:3.125;" x1="136.4583" x2="179.1667" y1="547.2005" y2="547.2005"/><polygon fill="#2FA4E7" points="146.875,543.0339,136.4583,547.2005,146.875,551.3672,142.7083,547.2005" style="stroke:#2FA4E7;stroke-width:1.0416666666666667;"/><text fill="#343A40" font-family="Verdana" font-size="12.5" lengthAdjust="spacing" textLength="136.4583" x="147.9167" y="508.8684">Populate event queue</text><text fill="#343A40" font-family="Verdana" font-size="12.5" lengthAdjust="spacing" textLength="163.5417" x="147.9167" y="523.4192">with events from handlers</text><polygon fill="#2FA4E7" points="763.5417,582.5846,773.9583,586.7513,763.5417,590.918,767.7083,586.7513" style="stroke:#2FA4E7;stroke-width:1.0416666666666667;"/><line style="stroke:#2FA4E7;stroke-width:3.125;" x1="135.4167" x2="769.7917" y1="586.7513" y2="586.7513"/><text fill="#343A40" font-family="Verdana" font-size="12.5" lengthAdjust="spacing" textLength="205.2083" x="147.9167" y="576.5116">Event Queue (Ready to execute)</text><polygon fill="#2FA4E7" points="146.875,622.1354,136.4583,626.3021,146.875,630.4688,142.7083,626.3021" style="stroke:#2FA4E7;stroke-width:1.0416666666666667;"/><line style="stroke:#2FA4E7;stroke-width:3.125;" x1="140.625" x2="775" y1="626.3021" y2="626.3021"/><text fill="#343A40" font-family="Verdana" font-size="12.5" lengthAdjust="spacing" textLength="92.7083" x="158.3333" y="616.0624">Event Handling</text><line style="stroke:#2FA4E7;stroke-width:3.125;" x1="135.4167" x2="179.1667" y1="680.4036" y2="680.4036"/><line style="stroke:#2FA4E7;stroke-width:3.125;" x1="179.1667" x2="179.1667" y1="680.4036" y2="693.9453"/><line style="stroke:#2FA4E7;stroke-width:3.125;" x1="136.4583" x2="179.1667" y1="693.9453" y2="693.9453"/><polygon fill="#2FA4E7" points="146.875,689.7786,136.4583,693.9453,146.875,698.112,142.7083,693.9453" style="stroke:#2FA4E7;stroke-width:1.0416666666666667;"/><text fill="#343A40" font-family="Verdana" font-size="12.5" lengthAdjust="spacing" textLength="146.875" x="147.9167" y="655.6132">Execute corresponding</text><text fill="#343A40" font-family="Verdana" font-size="12.5" lengthAdjust="spacing" textLength="175" x="147.9167" y="670.164">handlers for emitted events</text><polygon fill="#2FA4E7" points="346.875,729.3294,336.4583,733.4961,346.875,737.6628,342.7083,733.4961" style="stroke:#2FA4E7;stroke-width:1.0416666666666667;"/><line style="stroke:#2FA4E7;stroke-width:3.125;" x1="340.625" x2="775" y1="733.4961" y2="733.4961"/><text fill="#343A40" font-family="Verdana" font-size="12.5" lengthAdjust="spacing" textLength="93.75" x="358.3333" y="723.2564">Event Emission</text><line style="stroke:#2FA4E7;stroke-width:3.125;" x1="335.4167" x2="379.1667" y1="787.5977" y2="787.5977"/><line style="stroke:#2FA4E7;stroke-width:3.125;" x1="379.1667" x2="379.1667" y1="787.5977" y2="801.1393"/><line style="stroke:#2FA4E7;stroke-width:3.125;" x1="336.4583" x2="379.1667" y1="801.1393" y2="801.1393"/><polygon fill="#2FA4E7" points="346.875,796.9727,336.4583,801.1393,346.875,805.306,342.7083,801.1393" style="stroke:#2FA4E7;stroke-width:1.0416666666666667;"/><text fill="#343A40" font-family="Verdana" font-size="12.5" lengthAdjust="spacing" textLength="136.4583" x="347.9167" y="762.8072">Populate event queue</text><text fill="#343A40" font-family="Verdana" font-size="12.5" lengthAdjust="spacing" textLength="163.5417" x="347.9167" y="777.358">with events from handlers</text><polygon fill="#2FA4E7" points="763.5417,836.5234,773.9583,840.6901,763.5417,844.8568,767.7083,840.6901" style="stroke:#2FA4E7;stroke-width:1.0416666666666667;"/><line style="stroke:#2FA4E7;stroke-width:3.125;" x1="335.4167" x2="769.7917" y1="840.6901" y2="840.6901"/><text fill="#343A40" font-family="Verdana" font-size="12.5" lengthAdjust="spacing" textLength="205.2083" x="347.9167" y="830.4504">Event Queue (Ready to execute)</text><polygon fill="#2FA4E7" points="346.875,876.0742,336.4583,880.2409,346.875,884.4076,342.7083,880.2409" style="stroke:#2FA4E7;stroke-width:1.0416666666666667;"/><line style="stroke:#2FA4E7;stroke-width:3.125;" x1="340.625" x2="775" y1="880.2409" y2="880.2409"/><text fill="#343A40" font-family="Verdana" font-size="12.5" lengthAdjust="spacing" textLength="92.7083" x="358.3333" y="870.0012">Event Handling</text><line style="stroke:#2FA4E7;stroke-width:3.125;" x1="335.4167" x2="379.1667" y1="934.3424" y2="934.3424"/><line style="stroke:#2FA4E7;stroke-width:3.125;" x1="379.1667" x2="379.1667" y1="934.3424" y2="947.8841"/><line style="stroke:#2FA4E7;stroke-width:3.125;" x1="336.4583" x2="379.1667" y1="947.8841" y2="947.8841"/><polygon fill="#2FA4E7" points="346.875,943.7174,336.4583,947.8841,346.875,952.0508,342.7083,947.8841" style="stroke:#2FA4E7;stroke-width:1.0416666666666667;"/><text fill="#343A40" font-family="Verdana" font-size="12.5" lengthAdjust="spacing" textLength="146.875" x="347.9167" y="909.552">Execute corresponding</text><text fill="#343A40" font-family="Verdana" font-size="12.5" lengthAdjust="spacing" textLength="175" x="347.9167" y="924.1028">handlers for emitted events</text><polygon fill="#2FA4E7" points="546.875,983.2682,536.4583,987.4349,546.875,991.6016,542.7083,987.4349" style="stroke:#2FA4E7;stroke-width:1.0416666666666667;"/><line style="stroke:#2FA4E7;stroke-width:3.125;" x1="540.625" x2="775" y1="987.4349" y2="987.4349"/><text fill="#343A40" font-family="Verdana" font-size="12.5" lengthAdjust="spacing" textLength="93.75" x="558.3333" y="977.1952">Event Emission</text><line style="stroke:#2FA4E7;stroke-width:3.125;" x1="535.4167" x2="579.1667" y1="1041.5365" y2="1041.5365"/><line style="stroke:#2FA4E7;stroke-width:3.125;" x1="579.1667" x2="579.1667" y1="1041.5365" y2="1055.0781"/><line style="stroke:#2FA4E7;stroke-width:3.125;" x1="536.4583" x2="579.1667" y1="1055.0781" y2="1055.0781"/><polygon fill="#2FA4E7" points="546.875,1050.9115,536.4583,1055.0781,546.875,1059.2448,542.7083,1055.0781" style="stroke:#2FA4E7;stroke-width:1.0416666666666667;"/><text fill="#343A40" font-family="Verdana" font-size="12.5" lengthAdjust="spacing" textLength="136.4583" x="547.9167" y="1016.746">Populate event queue</text><text fill="#343A40" font-family="Verdana" font-size="12.5" lengthAdjust="spacing" textLength="163.5417" x="547.9167" y="1031.2968">with events from handlers</text><polygon fill="#2FA4E7" points="763.5417,1090.4622,773.9583,1094.6289,763.5417,1098.7956,767.7083,1094.6289" style="stroke:#2FA4E7;stroke-width:1.0416666666666667;"/><line style="stroke:#2FA4E7;stroke-width:3.125;" x1="535.4167" x2="769.7917" y1="1094.6289" y2="1094.6289"/><text fill="#343A40" font-family="Verdana" font-size="12.5" lengthAdjust="spacing" textLength="205.2083" x="547.9167" y="1084.3892">Event Queue (Ready to execute)</text><polygon fill="#2FA4E7" points="546.875,1130.013,536.4583,1134.1797,546.875,1138.3464,542.7083,1134.1797" style="stroke:#2FA4E7;stroke-width:1.0416666666666667;"/><line style="stroke:#2FA4E7;stroke-width:3.125;" x1="540.625" x2="775" y1="1134.1797" y2="1134.1797"/><text fill="#343A40" font-family="Verdana" font-size="12.5" lengthAdjust="spacing" textLength="92.7083" x="558.3333" y="1123.94">Event Handling</text><line style="stroke:#2FA4E7;stroke-width:3.125;" x1="535.4167" x2="579.1667" y1="1188.2813" y2="1188.2813"/><line style="stroke:#2FA4E7;stroke-width:3.125;" x1="579.1667" x2="579.1667" y1="1188.2813" y2="1201.8229"/><line style="stroke:#2FA4E7;stroke-width:3.125;" x1="536.4583" x2="579.1667" y1="1201.8229" y2="1201.8229"/><polygon fill="#2FA4E7" points="546.875,1197.6563,536.4583,1201.8229,546.875,1205.9896,542.7083,1201.8229" style="stroke:#2FA4E7;stroke-width:1.0416666666666667;"/><text fill="#343A40" font-family="Verdana" font-size="12.5" lengthAdjust="spacing" textLength="146.875" x="547.9167" y="1163.4908">Execute corresponding</text><text fill="#343A40" font-family="Verdana" font-size="12.5" lengthAdjust="spacing" textLength="175" x="547.9167" y="1178.0416">handlers for emitted events</text><line style="stroke:#2FA4E7;stroke-width:3.125;" x1="776.0417" x2="819.7917" y1="1241.3737" y2="1241.3737"/><line style="stroke:#2FA4E7;stroke-width:3.125;" x1="819.7917" x2="819.7917" y1="1241.3737" y2="1254.9154"/><line style="stroke:#2FA4E7;stroke-width:3.125;" x1="777.0833" x2="819.7917" y1="1254.9154" y2="1254.9154"/><polygon fill="#2FA4E7" points="787.5,1250.7487,777.0833,1254.9154,787.5,1259.082,783.3333,1254.9154" style="stroke:#2FA4E7;stroke-width:1.0416666666666667;"/><text fill="#343A40" font-family="Verdana" font-size="12.5" lengthAdjust="spacing" textLength="118.75" x="788.5417" y="1231.134">Event Management</text><line style="stroke:#2FA4E7;stroke-width:3.125;" x1="776.0417" x2="819.7917" y1="1309.0169" y2="1309.0169"/><line style="stroke:#2FA4E7;stroke-width:3.125;" x1="819.7917" x2="819.7917" y1="1309.0169" y2="1322.5586"/><line style="stroke:#2FA4E7;stroke-width:3.125;" x1="777.0833" x2="819.7917" y1="1322.5586" y2="1322.5586"/><polygon fill="#2FA4E7" points="787.5,1318.3919,777.0833,1322.5586,787.5,1326.7253,783.3333,1322.5586" style="stroke:#2FA4E7;stroke-width:1.0416666666666667;"/><text fill="#343A40" font-family="Verdana" font-size="12.5" lengthAdjust="spacing" textLength="157.2917" x="788.5417" y="1284.2265">Manage event status and</text><text fill="#343A40" font-family="Verdana" font-size="12.5" lengthAdjust="spacing" textLength="248.9583" x="788.5417" y="1298.7773">remove inactive events from the queue</text><!--SRC=[dPGzRzim48Pt_uhhrW9f9ayPkXG6qg506nIUj33III9C7Ldo93V_laVgaweB95aC-7WVp_log0_SOeTGekyDAZeuvLcNsYbYUBI1iy1NIuGbQvld_VAAGeq-2vwFXmDPHh03-jJg0PumE4j1Fnk4slg2FAfAKmDEbHVaS5TGAI6EeNAP5SC1QPVeUkPD13IntHKfgg12Woclab600nA7-otPgka6tqB3ayJOzeBeG1azI59FgLJ-ySiqKJddxP1B00oideqERIS0OnwZxpIfU9m1pMxUm9bTYEKUIzHfJAqDXXJhC0JLOD9UNiXU3LPDd1ZkffgaezCXH8koiUVZ0tnN5Cidcr89_i6oPmm5oQ9eBvgyJrW9f9KK8wxS5tIgQxbwgKjbHZSjNp7-YlD1DoGftpfdCE9W1Nr8Gk3Q2ZqOQvtGd8_m-SkqAwV80AU9zH23w-4FwtgZ13sHmkyUUopeghcTsMjlkmLlgOuYnyO_OmbyV9AjU07Pd4ddfriGZx6DuEuWJcD9Rab1yz1uPO2TvYXtf9gRRtTkftCzsYU-LNFUwVNA_uLRzFyVxlrUhEk-Ss8-o9FUwiAso-izs4Cj3jo6Uh_w5MbyU_5rR8x6uAHLFY7SfrSPFvoTl5hvw2cvW04pxV9GHr_-0W00]--></g></svg>